<svg xmlns="http://www.w3.org/2000/svg" viewBox="0 0 739.41 537.68"><defs><style>.cls-1{fill:#e0dedb;}</style></defs><title>Ресурс 1</title><g id="Слой_2" data-name="Слой 2"><g id="Слой_1-2" data-name="Слой 1"><polygon class="cls-1" points="7.51 4.39 3.79 7.18 0 4.5 1.37 0.07 6.01 0 7.51 4.39"/><polygon class="cls-1" points="80.7 4.39 76.98 7.18 73.19 4.5 74.56 0.07 79.2 0 80.7 4.39"/><polygon class="cls-1" points="153.89 4.39 150.17 7.18 146.38 4.5 147.75 0.07 152.39 0 153.89 4.39"/><polygon class="cls-1" points="227.08 4.39 223.37 7.18 219.57 4.5 220.94 0.07 225.59 0 227.08 4.39"/><polygon class="cls-1" points="300.27 4.39 296.56 7.18 292.76 4.5 294.13 0.07 298.77 0 300.27 4.39"/><polygon class="cls-1" points="373.46 4.39 369.75 7.18 365.95 4.5 367.32 0.07 371.96 0 373.46 4.39"/><polygon class="cls-1" points="7.51 70.71 3.79 73.49 0 70.81 1.37 66.38 6.01 66.31 7.51 70.71"/><polygon class="cls-1" points="80.7 70.71 76.98 73.49 73.19 70.81 74.56 66.38 79.2 66.31 80.7 70.71"/><polygon class="cls-1" points="153.89 70.71 150.17 73.49 146.38 70.81 147.75 66.38 152.39 66.31 153.89 70.71"/><polygon class="cls-1" points="227.08 70.71 223.37 73.49 219.57 70.81 220.94 66.38 225.59 66.31 227.08 70.71"/><polygon class="cls-1" points="300.27 70.71 296.56 73.49 292.76 70.81 294.13 66.38 298.77 66.31 300.27 70.71"/><polygon class="cls-1" points="373.46 70.71 369.75 73.49 365.95 70.81 367.32 66.38 371.96 66.31 373.46 70.71"/><polygon class="cls-1" points="7.51 137.02 3.79 139.8 0 137.13 1.37 132.69 6.01 132.63 7.51 137.02"/><polygon class="cls-1" points="80.7 137.02 76.98 139.8 73.19 137.13 74.56 132.69 79.2 132.63 80.7 137.02"/><polygon class="cls-1" points="153.89 137.02 150.17 139.8 146.38 137.13 147.75 132.69 152.39 132.63 153.89 137.02"/><polygon class="cls-1" points="227.08 137.02 223.37 139.8 219.57 137.13 220.94 132.69 225.59 132.63 227.08 137.02"/><polygon class="cls-1" points="300.27 137.02 296.56 139.8 292.76 137.13 294.13 132.69 298.77 132.63 300.27 137.02"/><polygon class="cls-1" points="373.46 137.02 369.75 139.8 365.95 137.13 367.32 132.69 371.96 132.63 373.46 137.02"/><polygon class="cls-1" points="7.51 203.33 3.79 206.11 0 203.44 1.37 199 6.01 198.94 7.51 203.33"/><polygon class="cls-1" points="80.7 203.33 76.98 206.11 73.19 203.44 74.56 199 79.2 198.94 80.7 203.33"/><polygon class="cls-1" points="153.89 203.33 150.17 206.11 146.38 203.44 147.75 199 152.39 198.94 153.89 203.33"/><polygon class="cls-1" points="227.08 203.33 223.37 206.11 219.57 203.44 220.94 199 225.59 198.94 227.08 203.33"/><polygon class="cls-1" points="300.27 203.33 296.56 206.11 292.76 203.44 294.13 199 298.77 198.94 300.27 203.33"/><polygon class="cls-1" points="373.46 203.33 369.75 206.11 365.95 203.44 367.32 199 371.96 198.94 373.46 203.33"/><polygon class="cls-1" points="7.51 269.64 3.79 272.43 0 269.75 1.37 265.32 6.01 265.25 7.51 269.64"/><polygon class="cls-1" points="80.7 269.64 76.98 272.43 73.19 269.75 74.56 265.32 79.2 265.25 80.7 269.64"/><polygon class="cls-1" points="153.89 269.64 150.17 272.43 146.38 269.75 147.75 265.32 152.39 265.25 153.89 269.64"/><polygon class="cls-1" points="227.08 269.64 223.37 272.43 219.57 269.75 220.94 265.32 225.59 265.25 227.08 269.64"/><polygon class="cls-1" points="300.27 269.64 296.56 272.43 292.76 269.75 294.13 265.32 298.77 265.25 300.27 269.64"/><polygon class="cls-1" points="373.46 269.64 369.75 272.43 365.95 269.75 367.32 265.32 371.96 265.25 373.46 269.64"/><polygon class="cls-1" points="7.51 335.96 3.79 338.74 0 336.06 1.37 331.63 6.01 331.56 7.51 335.96"/><polygon class="cls-1" points="80.7 335.96 76.98 338.74 73.19 336.06 74.56 331.63 79.2 331.56 80.7 335.96"/><polygon class="cls-1" points="153.89 335.96 150.17 338.74 146.38 336.06 147.75 331.63 152.39 331.56 153.89 335.96"/><polygon class="cls-1" points="227.08 335.96 223.37 338.74 219.57 336.06 220.94 331.63 225.59 331.56 227.08 335.96"/><polygon class="cls-1" points="300.27 335.96 296.56 338.74 292.76 336.06 294.13 331.63 298.77 331.56 300.27 335.96"/><polygon class="cls-1" points="373.46 335.96 369.75 338.74 365.95 336.06 367.32 331.63 371.96 331.56 373.46 335.96"/><polygon class="cls-1" points="7.51 402.27 3.79 405.05 0 402.38 1.37 397.94 6.01 397.88 7.51 402.27"/><polygon class="cls-1" points="80.7 402.27 76.98 405.05 73.19 402.38 74.56 397.94 79.2 397.88 80.7 402.27"/><polygon class="cls-1" points="153.89 402.27 150.17 405.05 146.38 402.38 147.75 397.94 152.39 397.88 153.89 402.27"/><polygon class="cls-1" points="227.08 402.27 223.37 405.05 219.57 402.38 220.94 397.94 225.59 397.88 227.08 402.27"/><polygon class="cls-1" points="300.27 402.27 296.56 405.05 292.76 402.38 294.13 397.94 298.77 397.88 300.27 402.27"/><polygon class="cls-1" points="373.46 402.27 369.75 405.05 365.95 402.38 367.32 397.94 371.96 397.88 373.46 402.27"/><polygon class="cls-1" points="7.51 468.58 3.79 471.36 0 468.69 1.37 464.25 6.01 464.19 7.51 468.58"/><polygon class="cls-1" points="80.7 468.58 76.98 471.36 73.19 468.69 74.56 464.25 79.2 464.19 80.7 468.58"/><polygon class="cls-1" points="153.89 468.58 150.17 471.36 146.38 468.69 147.75 464.25 152.39 464.19 153.89 468.58"/><polygon class="cls-1" points="227.08 468.58 223.37 471.36 219.57 468.69 220.94 464.25 225.59 464.19 227.08 468.58"/><polygon class="cls-1" points="300.27 468.58 296.56 471.36 292.76 468.69 294.13 464.25 298.77 464.19 300.27 468.58"/><polygon class="cls-1" points="373.46 468.58 369.75 471.36 365.95 468.69 367.32 464.25 371.96 464.19 373.46 468.58"/><polygon class="cls-1" points="7.51 534.89 3.79 537.68 0 535 1.37 530.57 6.01 530.5 7.51 534.89"/><polygon class="cls-1" points="80.7 534.89 76.98 537.68 73.19 535 74.56 530.57 79.2 530.5 80.7 534.89"/><polygon class="cls-1" points="153.89 534.89 150.17 537.68 146.38 535 147.75 530.57 152.39 530.5 153.89 534.89"/><polygon class="cls-1" points="227.08 534.89 223.37 537.68 219.57 535 220.94 530.57 225.59 530.5 227.08 534.89"/><polygon class="cls-1" points="300.27 534.89 296.56 537.68 292.76 535 294.13 530.57 298.77 530.5 300.27 534.89"/><polygon class="cls-1" points="373.46 534.89 369.75 537.68 365.95 535 367.32 530.57 371.96 530.5 373.46 534.89"/><polygon class="cls-1" points="373.46 4.39 369.75 7.18 365.95 4.5 367.32 0.07 371.96 0 373.46 4.39"/><polygon class="cls-1" points="446.65 4.39 442.94 7.18 439.14 4.5 440.51 0.07 445.15 0 446.65 4.39"/><polygon class="cls-1" points="519.84 4.39 516.13 7.18 512.33 4.5 513.7 0.07 518.35 0 519.84 4.39"/><polygon class="cls-1" points="593.03 4.39 589.32 7.18 585.52 4.5 586.89 0.07 591.54 0 593.03 4.39"/><polygon class="cls-1" points="666.22 4.39 662.51 7.18 658.71 4.5 660.08 0.07 664.73 0 666.22 4.39"/><polygon class="cls-1" points="739.41 4.39 735.7 7.18 731.9 4.5 733.27 0.07 737.92 0 739.41 4.39"/><polygon class="cls-1" points="373.46 70.71 369.75 73.49 365.95 70.81 367.32 66.38 371.96 66.31 373.46 70.71"/><polygon class="cls-1" points="446.65 70.71 442.94 73.49 439.14 70.81 440.51 66.38 445.15 66.31 446.65 70.71"/><polygon class="cls-1" points="519.84 70.71 516.13 73.49 512.33 70.81 513.7 66.38 518.35 66.31 519.84 70.71"/><polygon class="cls-1" points="593.03 70.71 589.32 73.49 585.52 70.81 586.89 66.38 591.54 66.31 593.03 70.71"/><polygon class="cls-1" points="666.22 70.71 662.51 73.49 658.71 70.81 660.08 66.38 664.73 66.31 666.22 70.71"/><polygon class="cls-1" points="739.41 70.71 735.7 73.49 731.9 70.81 733.27 66.38 737.92 66.31 739.41 70.71"/><polygon class="cls-1" points="373.46 137.02 369.75 139.8 365.95 137.13 367.32 132.69 371.96 132.63 373.46 137.02"/><polygon class="cls-1" points="446.65 137.02 442.94 139.8 439.14 137.13 440.51 132.69 445.15 132.63 446.65 137.02"/><polygon class="cls-1" points="519.84 137.02 516.13 139.8 512.33 137.13 513.7 132.69 518.35 132.63 519.84 137.02"/><polygon class="cls-1" points="593.03 137.02 589.32 139.8 585.52 137.13 586.89 132.69 591.54 132.63 593.03 137.02"/><polygon class="cls-1" points="666.22 137.02 662.51 139.8 658.71 137.13 660.08 132.69 664.73 132.63 666.22 137.02"/><polygon class="cls-1" points="739.41 137.02 735.7 139.8 731.9 137.13 733.27 132.69 737.92 132.63 739.41 137.02"/><polygon class="cls-1" points="373.46 203.33 369.75 206.11 365.95 203.44 367.32 199 371.96 198.94 373.46 203.33"/><polygon class="cls-1" points="446.65 203.33 442.94 206.11 439.14 203.44 440.51 199 445.15 198.94 446.65 203.33"/><polygon class="cls-1" points="519.84 203.33 516.13 206.11 512.33 203.44 513.7 199 518.35 198.94 519.84 203.33"/><polygon class="cls-1" points="593.03 203.33 589.32 206.11 585.52 203.44 586.89 199 591.54 198.94 593.03 203.33"/><polygon class="cls-1" points="666.22 203.33 662.51 206.11 658.71 203.44 660.08 199 664.73 198.94 666.22 203.33"/><polygon class="cls-1" points="739.41 203.33 735.7 206.11 731.9 203.44 733.27 199 737.92 198.94 739.41 203.33"/><polygon class="cls-1" points="373.46 269.64 369.75 272.43 365.95 269.75 367.32 265.32 371.96 265.25 373.46 269.64"/><polygon class="cls-1" points="446.65 269.64 442.94 272.43 439.14 269.75 440.51 265.32 445.15 265.25 446.65 269.64"/><polygon class="cls-1" points="519.84 269.64 516.13 272.43 512.33 269.75 513.7 265.32 518.35 265.25 519.84 269.64"/><polygon class="cls-1" points="593.03 269.64 589.32 272.43 585.52 269.75 586.89 265.32 591.54 265.25 593.03 269.64"/><polygon class="cls-1" points="666.22 269.64 662.51 272.43 658.71 269.75 660.08 265.32 664.73 265.25 666.22 269.64"/><polygon class="cls-1" points="739.41 269.64 735.7 272.43 731.9 269.75 733.27 265.32 737.92 265.25 739.41 269.64"/><polygon class="cls-1" points="373.46 335.96 369.75 338.74 365.95 336.06 367.32 331.63 371.96 331.56 373.46 335.96"/><polygon class="cls-1" points="446.65 335.96 442.94 338.74 439.14 336.06 440.51 331.63 445.15 331.56 446.65 335.96"/><polygon class="cls-1" points="519.84 335.96 516.13 338.74 512.33 336.06 513.7 331.63 518.35 331.56 519.84 335.96"/><polygon class="cls-1" points="593.03 335.96 589.32 338.74 585.52 336.06 586.89 331.63 591.54 331.56 593.03 335.96"/><polygon class="cls-1" points="666.22 335.96 662.51 338.74 658.71 336.06 660.08 331.63 664.73 331.56 666.22 335.96"/><polygon class="cls-1" points="739.41 335.96 735.7 338.74 731.9 336.06 733.27 331.63 737.92 331.56 739.41 335.96"/><polygon class="cls-1" points="373.46 402.27 369.75 405.05 365.95 402.38 367.32 397.94 371.96 397.88 373.46 402.27"/><polygon class="cls-1" points="446.65 402.27 442.94 405.05 439.14 402.38 440.51 397.94 445.15 397.88 446.65 402.27"/><polygon class="cls-1" points="519.84 402.27 516.13 405.05 512.33 402.38 513.7 397.94 518.35 397.88 519.84 402.27"/><polygon class="cls-1" points="593.03 402.27 589.32 405.05 585.52 402.38 586.89 397.94 591.54 397.88 593.03 402.27"/><polygon class="cls-1" points="666.22 402.27 662.51 405.05 658.71 402.38 660.08 397.94 664.73 397.88 666.22 402.27"/><polygon class="cls-1" points="739.41 402.27 735.7 405.05 731.9 402.38 733.27 397.94 737.92 397.88 739.41 402.27"/><polygon class="cls-1" points="373.46 468.58 369.75 471.36 365.95 468.69 367.32 464.25 371.96 464.19 373.46 468.58"/><polygon class="cls-1" points="446.65 468.58 442.94 471.36 439.14 468.69 440.51 464.25 445.15 464.19 446.65 468.58"/><polygon class="cls-1" points="519.84 468.58 516.13 471.36 512.33 468.69 513.7 464.25 518.35 464.19 519.84 468.58"/><polygon class="cls-1" points="593.03 468.58 589.32 471.36 585.52 468.69 586.89 464.25 591.54 464.19 593.03 468.58"/><polygon class="cls-1" points="666.22 468.58 662.51 471.36 658.71 468.69 660.08 464.25 664.73 464.19 666.22 468.58"/><polygon class="cls-1" points="739.41 468.58 735.7 471.36 731.9 468.69 733.27 464.25 737.92 464.19 739.41 468.58"/><polygon class="cls-1" points="373.46 534.89 369.75 537.68 365.95 535 367.32 530.57 371.96 530.5 373.46 534.89"/><polygon class="cls-1" points="446.65 534.89 442.94 537.68 439.14 535 440.51 530.57 445.15 530.5 446.65 534.89"/><polygon class="cls-1" points="519.84 534.89 516.13 537.68 512.33 535 513.7 530.57 518.35 530.5 519.84 534.89"/><polygon class="cls-1" points="593.03 534.89 589.32 537.68 585.52 535 586.89 530.57 591.54 530.5 593.03 534.89"/><polygon class="cls-1" points="666.22 534.89 662.51 537.68 658.71 535 660.08 530.57 664.73 530.5 666.22 534.89"/><polygon class="cls-1" points="739.41 534.89 735.7 537.68 731.9 535 733.27 530.57 737.92 530.5 739.41 534.89"/></g></g></svg>