<?xml version="1.0" encoding="utf-8"?>
<!-- Generator: Adobe Illustrator 17.0.0, SVG Export Plug-In . SVG Version: 6.00 Build 0)  -->
<!DOCTYPE svg PUBLIC "-//W3C//DTD SVG 1.1//EN" "http://www.w3.org/Graphics/SVG/1.1/DTD/svg11.dtd">
<svg version="1.1" id="Capa_1" xmlns="http://www.w3.org/2000/svg" xmlns:xlink="http://www.w3.org/1999/xlink" x="0px" y="0px"
	 width="612px" height="611.601px" viewBox="0 90.199 612 611.601" enable-background="new 0 90.199 612 611.601"
	 xml:space="preserve">
<g>
	<g>
		<path fill="#010002" d="M611.708,572.87c1.297,9.935-1.731,18.574-9.07,25.915l-86.168,85.517
			c-3.887,4.319-8.961,7.994-15.224,11.014c-6.263,3.025-12.417,4.968-18.461,5.831c-0.432,0-1.731,0.111-3.892,0.327
			c-2.156,0.215-4.964,0.325-8.419,0.325c-8.209,0-21.491-1.404-39.848-4.212c-18.357-2.809-40.815-9.72-67.376-20.732
			c-26.567-11.014-56.693-27.537-90.382-49.563c-33.689-22.025-69.539-52.261-107.548-90.703
			c-30.234-29.803-55.286-58.309-75.154-85.519c-19.868-27.212-35.849-52.371-47.943-75.479
			c-12.095-23.108-21.165-44.056-27.212-62.844S4.859,277.76,2.7,264.155c-2.16-13.605-3.023-24.296-2.592-32.07
			s0.648-12.094,0.648-12.958c0.864-6.047,2.807-12.202,5.831-18.465c3.023-6.263,6.695-11.338,11.014-15.225l86.168-86.168
			c6.047-6.047,12.958-9.07,20.732-9.07c5.615,0,10.582,1.62,14.901,4.859c4.319,3.239,7.991,7.235,11.014,11.986l69.323,131.52
			c3.887,6.911,4.967,14.469,3.239,22.676c-1.728,8.207-5.399,15.117-11.014,20.732l-31.746,31.746
			c-0.864,0.864-1.62,2.268-2.268,4.211c-0.648,1.944-0.972,3.563-0.972,4.859c1.728,9.07,5.615,19.436,11.662,31.098
			c5.183,10.366,13.174,23,23.972,37.901c10.798,14.901,26.131,32.069,46,51.505c19.436,19.87,36.713,35.31,51.831,46.326
			c15.114,11.01,27.752,19.111,37.902,24.294s17.925,8.315,23.323,9.391l8.096,1.621c0.864,0,2.271-0.325,4.212-0.972
			c1.944-0.649,3.347-1.404,4.212-2.269l36.928-37.577c7.779-6.91,16.845-10.365,27.212-10.365c7.345,0,13.173,1.295,17.492,3.887
			h0.647l125.04,73.858C604.581,557.107,609.979,564.232,611.708,572.87z"/>
	</g>
</g>
</svg>
