<?xml version="1.0" encoding="utf-8"?>
<!-- Generator: Adobe Illustrator 17.0.0, SVG Export Plug-In . SVG Version: 6.00 Build 0)  -->
<!DOCTYPE svg PUBLIC "-//W3C//DTD SVG 1.1//EN" "http://www.w3.org/Graphics/SVG/1.1/DTD/svg11.dtd">
<svg version="1.1" id="Слой_1" xmlns="http://www.w3.org/2000/svg" xmlns:xlink="http://www.w3.org/1999/xlink" x="0px" y="0px"
	 width="488.047px" height="488.047px" viewBox="0 0 488.047 488.047" enable-background="new 0 0 488.047 488.047"
	 xml:space="preserve">
<g>
	<path fill="#0D0F0F" d="M416.575,71.473C370.484,25.383,309.205,0,244.024,0S117.563,25.383,71.473,71.473
		C25.383,117.563,0,178.843,0,244.024s25.383,126.46,71.473,172.551c46.09,46.09,107.37,71.473,172.551,71.473
		s126.46-25.383,172.551-71.473c46.09-46.09,71.473-107.37,71.473-172.551S462.665,117.563,416.575,71.473z M244.024,474.047
		C117.188,474.047,14,370.859,14,244.024S117.188,14,244.024,14s230.023,103.188,230.023,230.024S370.859,474.047,244.024,474.047z"
		/>
	<path fill="#0D0F0F" d="M356.39,162.129c-3.015-2.42-7.42-1.938-9.841,1.076L229.186,309.386l-77.594-93.648
		c-2.466-2.978-6.88-3.391-9.856-0.924c-2.977,2.467-3.391,6.879-0.924,9.856l83.052,100.235c0.164,0.199,0.341,0.39,0.53,0.573
		c0.078,0.076,0.161,0.144,0.242,0.215c0.085,0.075,0.165,0.154,0.254,0.226c0.014,0.011,0.029,0.018,0.043,0.029
		c0.286,0.227,0.587,0.427,0.9,0.603c0.063,0.035,0.126,0.067,0.189,0.1c0.283,0.149,0.574,0.28,0.872,0.387
		c0.042,0.015,0.083,0.035,0.125,0.05c0.318,0.108,0.643,0.185,0.971,0.247c0.091,0.017,0.182,0.031,0.273,0.044
		c0.322,0.047,0.646,0.078,0.972,0.08c0.011,0,0.021,0.003,0.032,0.003c0.351,0,0.7-0.036,1.046-0.088
		c0.086-0.013,0.172-0.026,0.258-0.043c0.339-0.064,0.674-0.146,1-0.26c0.044-0.015,0.086-0.036,0.13-0.052
		c0.304-0.112,0.599-0.249,0.887-0.404c0.063-0.034,0.127-0.066,0.189-0.102c0.316-0.183,0.619-0.391,0.907-0.625
		c0.017-0.014,0.035-0.022,0.052-0.036c0.092-0.076,0.173-0.159,0.26-0.239c0.074-0.068,0.15-0.131,0.221-0.203
		c0.19-0.189,0.368-0.386,0.531-0.591L357.466,171.97C359.887,168.955,359.405,164.549,356.39,162.129z"/>
</g>
</svg>
