<?xml version="1.0" encoding="utf-8"?>
<!-- Generator: Adobe Illustrator 17.0.0, SVG Export Plug-In . SVG Version: 6.00 Build 0)  -->
<!DOCTYPE svg PUBLIC "-//W3C//DTD SVG 1.1//EN" "http://www.w3.org/Graphics/SVG/1.1/DTD/svg11.dtd">
<svg version="1.1" id="Слой_1" xmlns="http://www.w3.org/2000/svg" xmlns:xlink="http://www.w3.org/1999/xlink" x="0px" y="0px"
	 width="504.169px" height="453.558px" viewBox="0 0 504.169 453.558" enable-background="new 0 0 504.169 453.558"
	 xml:space="preserve">
<g>
	<path fill="#0D0F0F" d="M141.433,244.667l-27.823,0.008c-5.949,0-11.876-0.003-17.8-0.012c-20.456-0.03-40.911-0.072-61.366-0.114
		l-26.836-0.054v17.018h133.825V244.667z"/>
	<path fill="#0D0F0F" d="M469.952,141.794c-37.017-53.642-89.261-83.553-155.282-88.903l-2.071-0.168V16.455h52.635V0H242.431
		v16.695h52.652v36.037l-2.055,0.181c-34.7,3.047-65.824,12.756-92.505,28.856c-25.537,15.41-47.87,37.21-66.377,64.794
		l-1.171,1.744l14.497,8.726l1.05-1.634c34.396-53.545,92.317-85.513,154.939-85.513c43.021,0,84.712,15.051,117.393,42.381
		c40.194,33.612,63.687,80.584,66.153,132.261c2.458,51.535-16.344,100.334-52.945,137.408
		c-36.509,36.981-81.187,55.305-132.646,54.355c-64.058-1.156-115.535-29.827-153.001-85.218l-1.063-1.572l-14.001,8.43l1.069,1.723
		c16.932,27.276,40.896,50.395,69.302,66.856c30.535,17.694,65.136,27.047,100.064,27.047h0.015
		c13.948-0.001,28.01-1.492,41.795-4.433c88.165-18.805,153.234-94.796,158.237-184.796
		C506.337,219.229,494.939,178.003,469.952,141.794z"/>
	<path fill="#0D0F0F" d="M290.339,215.37c-18.695,6.371-30.596,27.646-25.986,46.457c4.625,18.876,20.569,31.559,39.677,31.559
		c1.758,0,3.545-0.107,5.311-0.317c16.028-1.906,33.64-15.884,34.711-38.033c0.856-17.706-9.477-33.207-26.323-39.491
		c-4.055-1.513-5.557-3.676-5.542-7.982c0.089-25.388,0.082-51.204,0.074-76.171l-0.005-24.904h-16.949l0.004,25.372
		c0.003,24.86,0.006,50.567,0.067,76.114C295.387,211.379,294.533,213.94,290.339,215.37z M280.293,253.286
		c-0.035-12.797,10.42-23.297,23.299-23.404l0.21-0.001c6.342,0.001,12.285,2.473,16.734,6.961
		c4.411,4.448,6.81,10.342,6.755,16.593c-0.109,12.553-10.429,23-23.001,23.287C291.382,277.032,280.329,266.163,280.293,253.286z"
		/>
	<rect x="50.43" y="181.188" fill="#0D0F0F" width="133.458" height="16.36"/>
	<rect x="50.522" y="309.157" fill="#0D0F0F" width="133.395" height="16.368"/>
</g>
</svg>
