<?xml version="1.0" encoding="utf-8"?>
<!-- Generator: Adobe Illustrator 17.0.0, SVG Export Plug-In . SVG Version: 6.00 Build 0)  -->
<!DOCTYPE svg PUBLIC "-//W3C//DTD SVG 1.1//EN" "http://www.w3.org/Graphics/SVG/1.1/DTD/svg11.dtd">
<svg version="1.1" id="Слой_1" xmlns="http://www.w3.org/2000/svg" xmlns:xlink="http://www.w3.org/1999/xlink" x="0px" y="0px"
	 width="558.001px" height="595.281px" viewBox="0 0 558.001 595.281" enable-background="new 0 0 558.001 595.281"
	 xml:space="preserve">
<g>
	<g>
		<path fill="#0D0F0F" d="M553.072,131.347L282.792,0.867c-2.396-1.156-5.187-1.156-7.582,0L4.929,131.347
			C1.915,132.802,0,135.853,0,139.2V456.08c0,3.346,1.915,6.398,4.929,7.853l270.28,130.48c1.198,0.578,2.495,0.867,3.791,0.867
			s2.593-0.29,3.791-0.867l270.28-130.48c3.014-1.454,4.928-4.506,4.928-7.853v-316.88
			C558.001,135.852,556.085,132.803,553.072,131.347z M279,18.403L529.224,139.2l-72.535,35.017c-0.459-0.35-0.944-0.673-1.477-0.93
			L206.689,53.312L279,18.403z M186.996,63.171l249.859,120.621l-51.174,24.705L135.925,87.925L186.996,63.171z M442.701,200.334
			v91.322l-47.8,23.076v-91.322L442.701,200.334z M540.561,450.609L287.72,572.667V275.152l60.31-29.115
			c4.337-2.094,6.155-7.306,4.061-11.644c-2.094-4.336-7.306-6.156-11.644-4.061L279,259.997l-24.179-11.673
			c-4.338-2.096-9.55-0.276-11.644,4.061c-2.094,4.337-0.276,9.55,4.061,11.644l23.042,11.123v297.514L17.44,450.607V153.092
			l192.536,92.949c1.222,0.591,2.514,0.87,3.784,0.87c3.241,0,6.355-1.816,7.858-4.931c2.094-4.337,0.276-9.55-4.061-11.644
			L28.777,139.2l86.624-41.818L377.34,223.835c0.038,0.053,0.081,0.101,0.121,0.153v104.638c0,3.001,1.543,5.79,4.084,7.386
			c1.411,0.886,3.022,1.334,4.637,1.334c1.293,0,2.589-0.287,3.79-0.867l65.24-31.495c3.014-1.454,4.929-4.505,4.929-7.853V191.917
			l80.42-38.823L540.561,450.609L540.561,450.609z"/>
	</g>
</g>
</svg>
