<svg xmlns="http://www.w3.org/2000/svg" viewBox="0 0 497.99 497.99"><defs><style>.cls-1{fill:#010101;stroke:#010101;stroke-miterlimit:10;stroke-width:3px;}</style></defs><title>Ресурс 1</title><g id="Слой_2" data-name="Слой 2"><g id="Слой_1-2" data-name="Слой 1"><path class="cls-1" d="M249,496.49c-65.62,0-127.61-25.77-174.54-72.56s-73-109-73-174.92c0-65.62,25.77-127.61,72.56-174.54s109-73,174.92-73c65.62,0,127.61,25.77,174.54,72.56s73,109,73,174.92c0,65.62-25.77,127.61-72.56,174.54S314.91,496.49,249,496.49Zm-83.7-121.8L198.2,478l4.92,1a234.82,234.82,0,0,0,90.89.18l4.94-1,32.71-102.49L304.73,336.4H193.46ZM313.55,475.15l16.34-6a235.33,235.33,0,0,0,103-75l10.88-13.73-99.93-.28ZM54.1,380.45l10.84,13.71A235.21,235.21,0,0,0,167.2,468.78l16.38,6.11-30.19-94.82ZM353,222.71,315.23,330.46l26.38,36.94,109.64.26,2.44-4.36a232.06,232.06,0,0,0,28-85.17l.62-5L394,209.62ZM15.15,267.37l.5,5a231.75,231.75,0,0,0,28.54,90.74l2.44,4.36,108.2-.08,27.76-38.51-35.5-108.12-42.58-14.66Zm145-48.37,34.15,105.42H303.4L340,220.59l-91.11-68.11Zm242.7-19,81.05,58.27L483.36,241a233.47,233.47,0,0,0-38.95-121.5L434.8,105ZM56.37,115.41A233.54,233.54,0,0,0,14.9,235.17l-1,17.32,82-56.22L66.3,101.12Zm199.1-16.68-.11,42.39,92.91,69.46,41.86-13.35,34.71-103.3-3.41-3.71A234.63,234.63,0,0,0,348,36.46l-4.56-2.13ZM150.28,36.3A234.6,234.6,0,0,0,80,86.59L76.5,90.21l32.24,103.63,43.42,14.94,90.41-67.66.12-42.42L154.85,34.18ZM249,14.48a234.17,234.17,0,0,0-63.83,8.84l-16.71,4.73L249,87.37l80.89-59.19-16.73-4.77A234.39,234.39,0,0,0,249,14.48Z"/></g></g></svg>