<?xml version="1.0" encoding="utf-8"?>
<!-- Generator: Adobe Illustrator 17.0.0, SVG Export Plug-In . SVG Version: 6.00 Build 0)  -->
<!DOCTYPE svg PUBLIC "-//W3C//DTD SVG 1.1//EN" "http://www.w3.org/Graphics/SVG/1.1/DTD/svg11.dtd">
<svg version="1.1" id="Слой_1" xmlns="http://www.w3.org/2000/svg" xmlns:xlink="http://www.w3.org/1999/xlink" x="0px" y="0px"
	 width="593.953px" height="587.261px" viewBox="0 0 593.953 587.261" enable-background="new 0 0 593.953 587.261"
	 xml:space="preserve">
<path fill="#0D0F0F" d="M592.601,223.448c-2.741-9.882-9.354-17.229-19.654-21.837c-18.055-8.078-36.268-5.572-52.669,7.25
	c-10.239,8.003-16.61,17.657-18.306,20.4l-16.91,18.163c-0.593-3.676-0.998-6.54-1.017-7.479c0.001,0.063-0.004,0.542-0.163,1.215
	c0.387-1.925,0.606-9.508,1.394-74.637c0.408-33.792,0.777-69.039,0.811-73.151c0.026-0.195,0.064-0.456,0.111-0.777
	c4.512-31.148-2.543-46.93-9.255-54.685c-6.553-7.57-15.709-11.409-27.214-11.409c-13.389,0-23.978,4.282-31.473,12.727
	c-4.563,5.142-7.346,11.203-9.019,17.067l-1.15-19.025c-0.029-2.375-0.646-15.814-10.641-25.973C390.073,3.8,379.69,0,366.588,0
	c-13.606,0-23.989,3.869-30.859,11.5c-4.422,4.912-6.494,10.499-7.44,15.121C322.486,19.892,312.526,14,296.588,14
	c-17.764,0-27.892,7.045-33.65,14.61c-4.003-1.362-8.438-2.055-13.298-2.055c-13.388,0-23.977,4.282-31.472,12.726
	c-4.564,5.143-7.346,11.203-9.018,17.068l-1.151-19.023c-0.029-2.371-0.645-15.813-10.641-25.975
	C189.985,3.855,179.603,0.055,166.5,0.055c-13.607,0-23.989,3.869-30.859,11.5c-4.421,4.911-6.494,10.499-7.441,15.121
	c-5.801-6.729-15.762-12.621-31.7-12.621c-13.335,0-23.855,3.973-31.267,11.808c-7.684,8.123-11.492,20.226-10.722,34.081
	c0.187,3.354,0.847,9.146,1.805,16.388c-3.524-1.766-7.833-2.858-13.062-2.858c-0.724,0-1.466,0.021-2.215,0.065
	c-0.329-0.019-0.744-0.034-1.237-0.034C33.156,73.504,0,76.689,0,139.555c0,42.576,3.57,72.535,5.703,90.435
	c0.761,6.389,1.548,12.996,1.368,14.576c-1.215,8.505,5.165,70.925,10.039,98.22c5.342,29.915,8.225,56.557,8.225,66.437
	c0,4.431,0.319,26.918,6.622,34.481c0.378,0.453,1.175,2.061,1.757,3.234c2.674,5.396,7.15,14.427,18.417,18.809
	c0.137,0.053,0.219,0.085,0.391,0.499c1.724,4.145-1.371,15.538-4.264,22.163l-0.65,1.481l1.752,43.104l1.732,9.528l-9.323,23.867
	l15.324,14.558l162.571,6.313l9.977-33.605l12.861-3.914V464.38c1.02-0.559,2.186-1.236,3.444-2.021
	c1.934,1.338,4.027,2.457,6.274,3.331c0.137,0.053,0.22,0.085,0.392,0.499c1.724,4.146-1.37,15.538-4.264,22.163l-0.65,1.481
	l1.752,43.104l1.732,9.528l-9.324,23.868l15.324,14.558l162.571,6.313l9.977-33.605l12.86-3.914v-85.361
	c9.114-4.997,29.5-18.904,29.5-43.325c0-16.461,2.441-22.313,3.249-23.798l0.097-0.049l99.899-113.018l0.497-0.632
	C576.807,282.103,599.665,248.91,592.601,223.448z M46.256,440.721c-1.073-2.166-2.087-4.213-3.497-5.922
	c-1.437-2.195-3.426-12.93-3.426-25.577c0-12.325-3.629-41.944-8.442-68.897c-5.329-29.839-10.656-87.799-9.961-93.78
	c0.443-3.1-0.055-7.55-1.326-18.211C17.508,210.742,14,181.3,14,139.555c0-49.542,21.494-52.051,25.802-52.051
	c0.189,0,0.333,0.005,0.426,0.01l0.496,0.078l0.774-0.055c0.6-0.043,1.19-0.064,1.755-0.064c11.263,0,13.006,8.944,13.267,11.619
	l0.033,0.426l14.584,72.419l13.767-2.533c-0.154-0.926-15.448-92.822-16.416-110.237c-0.321-5.776,0.151-16.534,6.914-23.683
	c4.663-4.929,11.761-7.429,21.097-7.429c20.725,0,24.127,12.331,24.557,14.445l10.472,114.691l13.967-0.868l-4-121l-0.029-0.445
	c-0.007-0.082-0.66-8.237,4.668-14.056c4.112-4.491,10.963-6.768,20.364-6.768c9.146,0,16.137,2.36,20.78,7.015
	c6.667,6.684,6.72,16.32,6.721,16.37l-0.004,0.269l8.516,140.769l13.98-0.104l4.526-99.077l-0.068-0.574
	c-0.023-0.189-1.994-19.241,7.688-30.149c4.79-5.396,11.659-8.02,21.001-8.02c7.362,0,12.801,2.149,16.628,6.571
	c3.932,4.542,9.937,16.234,5.985,43.515c-0.18,1.241-0.254,1.754-0.254,2.411c-0.016,8.643-1.454,136.097-1.928,145.368
	c-0.325,1.96,0.004,6.378,3.546,25.415l2.54,13.655l36.465-39.166l0.541-0.586l0.393-0.675c0.152-0.26,15.421-26.022,38.619-26.022
	c4.882,0,9.917,1.145,14.966,3.403c6.393,2.86,10.278,7.042,11.876,12.784c4.357,15.656-8.815,39.64-14.541,48.006l-98.201,111.097
	c-4.083,3.315-8.275,12.205-8.275,34.724c0,21.45-24.996,32.453-25.231,32.555l-4.269,1.809v5.447H65.445
	c-1.612-3.873-4.461-6.698-8.242-8.168C50.996,450.284,48.586,445.422,46.256,440.721z M62.908,567.163l-4.676-4.442l5.479-14.027
	l151.017,5.999l-5.39,18.157L62.908,567.163z M223.094,541.014L63.897,534.69l-0.589-3.24l-1.583-38.947
	c1.389-3.398,3.955-10.388,4.897-17.637H228.5v64.503L223.094,541.014z M262.996,567.108l-4.677-4.442l5.46-13.976l151.035,5.95
	l-5.39,18.154L262.996,567.108z M423.18,540.96l-159.185-6.271l-0.599-3.294l-1.584-38.947c1.782-4.359,5.499-14.629,5.239-23.773
	l161.537-1.603v72.243L423.18,540.96z M564.564,275.179l-98.201,111.098c-4.083,3.315-8.275,12.206-8.275,34.724
	c0,18.794-19.187,29.567-24.097,32.015l-173.019,1.717c-0.923-0.72-1.945-1.32-3.047-1.808c7.411-7.388,14.076-17.908,14.076-31.87
	c0-16.461,2.441-22.313,3.249-23.798l0.097-0.049l99.899-113.017l0.497-0.633c0.977-1.4,23.835-34.593,16.771-60.056
	c-2.741-9.882-9.354-17.229-19.654-21.837c-6.858-3.068-13.817-4.624-20.683-4.624c-29.093,0-47.219,27.276-50.298,32.279
	l-16.904,18.157c-0.593-3.676-0.998-6.54-1.017-7.479c0.001,0.063-0.003,0.541-0.163,1.215c0.387-1.925,0.606-9.506,1.393-74.637
	c0.409-33.792,0.778-69.039,0.812-73.151c0.026-0.195,0.064-0.456,0.111-0.777c4.512-31.148-2.543-46.93-9.255-54.685
	c-0.594-0.686-1.216-1.331-1.853-1.955C279.706,30.696,286.933,28,296.588,28c20.726,0,24.127,12.331,24.558,14.445l10.472,114.691
	l13.967-0.868l-4-121l-0.029-0.445c-0.007-0.082-0.659-8.237,4.669-14.056C350.336,16.277,357.188,14,366.588,14
	c9.146,0,16.138,2.36,20.78,7.015c6.668,6.684,6.721,16.32,6.721,16.37l-0.005,0.269l8.517,140.769l13.979-0.104l4.526-99.077
	l-0.068-0.574c-0.022-0.189-1.993-19.241,7.688-30.149c4.79-5.396,11.659-8.02,21.002-8.02c7.361,0,12.801,2.149,16.628,6.571
	c3.932,4.542,9.937,16.234,5.985,43.516c-0.18,1.24-0.254,1.754-0.254,2.41c-0.016,8.643-1.454,136.082-1.928,145.368
	c-0.325,1.96,0.004,6.376,3.546,25.415l2.54,13.655l36.465-39.166l0.54-0.585l0.394-0.675c0.879-1.509,21.889-36.796,53.585-22.62
	c6.393,2.86,10.277,7.042,11.876,12.784C583.463,242.829,570.29,266.813,564.564,275.179z"/>
</svg>
