<svg xmlns="http://www.w3.org/2000/svg" viewBox="0 0 466.3 595.28"><defs><style>.cls-1{fill:#010101;}</style></defs><title>Ресурс 1</title><g id="Слой_2" data-name="Слой 2"><g id="Слой_1-2" data-name="Слой 1"><path class="cls-1" d="M357.17,218.27h-248a9.92,9.92,0,1,0,0,19.84h248a9.92,9.92,0,0,0,0-19.84Z"/><path class="cls-1" d="M109.13,158.74h99.22a9.92,9.92,0,1,0,0-19.84H109.13a9.92,9.92,0,1,0,0,19.84Z"/><path class="cls-1" d="M357.17,297.64h-248a9.92,9.92,0,1,0,0,19.84h248a9.92,9.92,0,0,0,0-19.84Z"/><path class="cls-1" d="M357.17,377h-248a9.92,9.92,0,1,0,0,19.84h248a9.92,9.92,0,0,0,0-19.84Z"/><path class="cls-1" d="M357.17,456.38h-248a9.92,9.92,0,1,0,0,19.84h248a9.92,9.92,0,0,0,0-19.84Z"/><path class="cls-1" d="M321.59,0H0V595.28H466.3V144.71Zm5.81,33.87,105,105h-105ZM19.84,575.44V19.84H307.56v138.9h138.9v416.7Z"/></g></g></svg>